# xmcd
#
# Track frame offsets:
#	150
#	14072
#	27626
#	41700
#	58715
#	77855
#	95912
#	117649
#	134304
#	153677
#	172852
#	205747
#	227248
#	266260
#	311949
#
# Disc length: 4609 seconds
#
# Revision: 0
# Processed by: cddbd v1.5.1PL0 Copyright (c) Steve Scherf et al.
# Submitted via: EasyCDDAExtractor 8.2.2.1
#
DISCID=dd11ff0f
DTITLE=Various Artist - Let it roll
DYEAR=1900
DGENRE=Blues
TTITLE0=Flashbacksliders - Chinatown
TTITLE1=Flashbacksliders - It ain´t what you do
TTITLE2=Flashbacksliders - Bye bye birdie
TTITLE3=Albert Järvinen band - Countdown
TTITLE4=Albert Järvinen band - Heads off
TTITLE5=Albert Järvinen bronx - Rock´n roll hoochie koo
TTITLE6=Albert Järvinen bronx - Fenderal
TTITLE7=Albert Järvinen bronx - Into the blues
TTITLE8=Albert Järvinen band - It´s only love (live)
TTITLE9=Albert Järvinen band - Mercury blues (live)
TTITLE10=Albert Järvinen band - Nadine (live)
TTITLE11=Albert Järvinen band - Let it roll (live)
TTITLE12=Albert Järvinen band - Albert´s boogie (live)
TTITLE13=Albert Järvinen band - Braindamage- or still alive (live)
TTITLE14=Albert Järvinen - suojaus
EXTD=
EXTT0=
EXTT1=
EXTT2=
EXTT3=
EXTT4=
EXTT5=
EXTT6=
EXTT7=
EXTT8=
EXTT9=
EXTT10=
EXTT11=
EXTT12=
EXTT13=
EXTT14=
PLAYORDER=
